grf
version=1
nRows=26
nColumns=28
inDegrees=yes
endheader
time	ground_force_1_vx	ground_force_1_vy	ground_force_1_vz	ground_force_1_px	ground_force_1_py	ground_force_1_pz	ground_moment_1_mx	ground_moment_1_my	ground_moment_1_mz	ground_force_2_vx	ground_force_2_vy	ground_force_2_vz	ground_force_2_px	ground_force_2_py	ground_force_2_pz	ground_moment_2_mx	ground_moment_2_my	ground_moment_2_mz	ground_force_3_vx	ground_force_3_vy	ground_force_3_vz	ground_force_3_px	ground_force_3_py	ground_force_3_pz	ground_moment_3_mx	ground_moment_3_my	ground_moment_3_mz
2.070000	0.000000	0.000000	0.000000	0.351070	0.001012	0.467133	0.000000	0.000000	0.000000	66.648608	292.573534	-1.775172	-0.111512	-0.001164	0.363889	0.001827	-0.575780	-0.000764	0.000000	0.000000	0.000000	0.000000	0.000000	0.000000	0.000000	0.000000	0.000000
2.070667	0.000000	0.000000	0.000000	0.351197	0.001013	0.467131	0.000000	0.000000	0.000000	66.800667	291.383721	-1.856552	-0.111477	-0.001163	0.363870	0.001831	-0.576963	-0.000766	0.000000	0.000000	0.000000	0.000000	0.000000	0.000000	0.000000	0.000000	0.000000
2.071333	0.000000	0.000000	0.000000	0.351330	0.001013	0.467129	0.000000	0.000000	0.000000	66.945929	290.175428	-1.938348	-0.111441	-0.001163	0.363851	0.001835	-0.578044	-0.000767	0.000000	0.000000	0.000000	0.000000	0.000000	0.000000	0.000000	0.000000	0.000000
2.072000	-7.213308	25.441386	-0.669269	0.351467	0.001014	0.467124	-0.000170	0.043251	0.000020	67.084017	288.947930	-2.020532	-0.111405	-0.001163	0.363832	0.001838	-0.579013	-0.000769	0.000000	0.000000	0.000000	0.000000	0.000000	0.000000	0.000000	0.000000	0.000000
2.072667	-8.093677	29.973045	-0.813904	0.351611	0.001014	0.467118	-0.000181	0.046191	0.000021	67.214537	287.700430	-2.103088	-0.111369	-0.001163	0.363813	0.001840	-0.579860	-0.000770	0.000000	0.000000	0.000000	0.000000	0.000000	0.000000	0.000000	0.000000	0.000000
2.073333	-9.024437	34.851237	-0.970663	0.351759	0.001015	0.467109	-0.000193	0.049156	0.000022	67.337087	286.432178	-2.186013	-0.111332	-0.001163	0.363795	0.001843	-0.580575	-0.000771	0.000000	0.000000	0.000000	0.000000	0.000000	0.000000	0.000000	0.000000	0.000000
2.074000	-10.004988	40.083181	-1.139903	0.351913	0.001015	0.467099	-0.000205	0.052127	0.000024	67.451277	285.142471	-2.269318	-0.111295	-0.001163	0.363776	0.001844	-0.581147	-0.000771	0.000000	0.000000	0.000000	0.000000	0.000000	0.000000	0.000000	0.000000	0.000000
2.074667	-11.034281	45.674366	-1.321932	0.352071	0.001016	0.467087	-0.000216	0.055084	0.000025	67.556749	283.830612	-2.353027	-0.111258	-0.001163	0.363758	0.001846	-0.581568	-0.000772	0.000000	0.000000	0.000000	0.000000	0.000000	0.000000	0.000000	0.000000	0.000000
2.075333	-12.110776	51.628293	-1.517000	0.352235	0.001017	0.467072	-0.000228	0.058001	0.000026	67.653162	282.495870	-2.437179	-0.111221	-0.001162	0.363739	0.001847	-0.581834	-0.000772	0.000000	0.000000	0.000000	0.000000	0.000000	0.000000	0.000000	0.000000	0.000000
2.076000	-13.232381	57.946198	-1.725295	0.352403	0.001017	0.467055	-0.000239	0.060854	0.000028	67.740178	281.137490	-2.521821	-0.111184	-0.001162	0.363721	0.001847	-0.581939	-0.000772	0.000000	0.000000	0.000000	0.000000	0.000000	0.000000	0.000000	0.000000	0.000000
2.076667	-14.396410	64.626761	-1.946927	0.352577	0.001018	0.467036	-0.000250	0.063611	0.000029	67.817446	279.754729	-2.607009	-0.111146	-0.001162	0.363702	0.001847	-0.581881	-0.000772	0.000000	0.000000	0.000000	0.000000	0.000000	0.000000	0.000000	0.000000	0.000000
2.077333	-15.599520	71.665791	-2.181920	0.352756	0.001019	0.467013	-0.000260	0.066241	0.000030	67.884610	278.346858	-2.692801	-0.111109	-0.001162	0.363684	0.001846	-0.581660	-0.000772	0.000000	0.000000	0.000000	0.000000	0.000000	0.000000	0.000000	0.000000	0.000000
2.078000	-16.837657	79.055897	-2.430204	0.352940	0.001020	0.466988	-0.000270	0.068708	0.000031	67.941313	276.913128	-2.779248	-0.111071	-0.001162	0.363665	0.001845	-0.581274	-0.000772	0.000000	0.000000	0.000000	0.000000	0.000000	0.000000	0.000000	0.000000	0.000000
2.078667	-18.105996	86.786141	-2.691599	0.353130	0.001020	0.466960	-0.000279	0.070972	0.000032	67.987203	275.452733	-2.866384	-0.111033	-0.001162	0.363646	0.001843	-0.580728	-0.000771	0.000000	0.000000	0.000000	0.000000	0.000000	0.000000	0.000000	0.000000	0.000000
2.079333	-19.398881	94.841674	-2.965805	0.353325	0.001021	0.466929	-0.000287	0.072993	0.000033	68.021928	273.964834	-2.954222	-0.110995	-0.001162	0.363627	0.001841	-0.580021	-0.000770	0.000000	0.000000	0.000000	0.000000	0.000000	0.000000	0.000000	0.000000	0.000000
2.080000	-20.709758	103.203354	-3.252390	0.353526	0.001022	0.466896	-0.000294	0.074724	0.000034	68.045126	272.448587	-3.042764	-0.110957	-0.001161	0.363608	0.001838	-0.579156	-0.000769	0.000000	0.000000	0.000000	0.000000	0.000000	0.000000	0.000000	0.000000	0.000000
2.080667	-22.031165	111.847413	-3.550768	0.353732	0.001023	0.466860	-0.000299	0.076116	0.000034	68.056417	270.903121	-3.132005	-0.110919	-0.001161	0.363588	0.001835	-0.578135	-0.000767	0.000000	0.000000	0.000000	0.000000	0.000000	0.000000	0.000000	0.000000	0.000000
2.081333	-23.354858	120.745343	-3.860166	0.353944	0.001024	0.466821	-0.000303	0.077121	0.000035	68.055396	269.327534	-3.221945	-0.110881	-0.001161	0.363568	0.001831	-0.576960	-0.000766	0.000000	0.000000	0.000000	0.000000	0.000000	0.000000	0.000000	0.000000	0.000000
2.082000	-24.672071	129.864031	-4.179577	0.354163	0.001024	0.466779	-0.000305	0.077692	0.000035	68.041633	267.720939	-3.312587	-0.110843	-0.001161	0.363548	0.001827	-0.575635	-0.000764	0.000000	0.000000	0.000000	0.000000	0.000000	0.000000	0.000000	0.000000	0.000000
2.082667	-25.973782	139.165953	-4.507718	0.354388	0.001025	0.466733	-0.000306	0.077786	0.000035	68.014678	266.082498	-3.403926	-0.110805	-0.001161	0.363528	0.001822	-0.574158	-0.000762	0.000000	0.000000	0.000000	0.000000	0.000000	0.000000	0.000000	0.000000	0.000000
2.083333	-27.250921	148.609376	-4.842992	0.354620	0.001026	0.466685	-0.000304	0.077367	0.000035	67.974075	264.411409	-3.495936	-0.110766	-0.001161	0.363508	0.001817	-0.572534	-0.000760	0.000000	0.000000	0.000000	0.000000	0.000000	0.000000	0.000000	0.000000	0.000000
2.084000	-28.494593	158.148781	-5.183464	0.354858	0.001027	0.466633	-0.000300	0.076412	0.000035	67.919364	262.706898	-3.588580	-0.110728	-0.001161	0.363488	0.001811	-0.570768	-0.000758	0.000000	0.000000	0.000000	0.000000	0.000000	0.000000	0.000000	0.000000	0.000000
2.084667	-29.696306	167.735743	-5.526856	0.355103	0.001028	0.466579	-0.000294	0.074917	0.000034	67.850085	260.968222	-3.681827	-0.110689	-0.001160	0.363468	0.001805	-0.568878	-0.000755	0.000000	0.000000	0.000000	0.000000	0.000000	0.000000	0.000000	0.000000	0.000000
2.085333	-30.848217	177.320287	-5.870571	0.355354	0.001029	0.466521	-0.000286	0.072885	0.000033	67.765763	259.194684	-3.775656	-0.110650	-0.001160	0.363449	0.001799	-0.566879	-0.000752	0.000000	0.000000	0.000000	0.000000	0.000000	0.000000	0.000000	0.000000	0.000000
2.086000	-31.943386	186.852538	-6.211751	0.355611	0.001030	0.466460	-0.000276	0.070325	0.000032	67.665895	257.385661	-3.870055	-0.110611	-0.001160	0.363429	0.001792	-0.564788	-0.000750	0.000000	0.000000	0.000000	0.000000	0.000000	0.000000	0.000000	0.000000	0.000000
2.086667	-32.975974	196.284338	-6.547352	0.355876	0.001031	0.466395	-0.000264	0.067242	0.000030	67.549955	255.540590	-3.965006	-0.110572	-0.001160	0.363409	0.001786	-0.562613	-0.000747	0.000000	0.000000	0.000000	0.000000	0.000000	0.000000	0.000000	0.000000	0.000000
